# xmcd CD database file generated by Grip 3.2.0
# 
# Track frame offsets:
#       150
#       18060
#       37876
#       54679
#       77543
#       104648
#       119847
#       139167
#       159476
#       178088
#       196455
#       213519
#       229400
#       252655
#       269408
#       285962
#       307865
#       342927
# 
# Disc length: 4775 seconds
# 
# Revision: 5
# Processed by: cddbd v1.5.1PL2 Copyright (c) Steve Scherf et al.
# Submitted via: Grip 3.2.0
# 
DISCID=0812a512
DTITLE=Various Artist - PLAYING THE BLUES 2
DYEAR=2001
DGENRE=Blues
TTITLE0=JOHN MAYALL - Mail Order Mystics
TTITLE1=GARY MOORE feat. Albert Collins - Too Tired
TTITLE2=LARRY McCRAY - Keep On Walking
TTITLE3=POPS STABLES - Pray
TTITLE4=WALTER TROUT BAND - On The Rise
TTITLE5=WALTER WOFMAN WASHINGTON - Girl I Wanna Dance With You
TTITLE6=CHARLIE MUSSELWHITE - My Time Someday
TTITLE7=PETER GREEN - Loser Two Times
TTITLE8=LITTLE MILTON - You Just Cant Take My Blues
TTITLE9=BUDDY GUY - Trouble Man
TTITLE10=THE DUKE ROBILLARD BAND - Love Slipped In
TTITLE11=LONNIE MACK - Hug Me Till It Hurts
TTITLE12=BLUE LOU and THE HEADHUNTERS - Third Degree
TTITLE13=JOHN HAMMOND - I've Got Love If You Want It
TTITLE14=JOHNNY WINTER - The Illustrated Man
TTITLE15=GEORGE THOROGOOD and THE DESTROYERS - Bad To The Bone
TTITLE16=JULIAN SAS - Where Will It End!?
TTITLE17=ALBERT COLLINS - Frosty
EXTD=YEAR: 2001 ID3G: 0
EXTT0=
EXTT1=
EXTT2=
EXTT3=
EXTT4=
EXTT5=
EXTT6=
EXTT7=
EXTT8=
EXTT9=
EXTT10=
EXTT11=
EXTT12=
EXTT13=
EXTT14=
EXTT15=
EXTT16=
EXTT17=
PLAYORDER=
